<svg id="icon-zigbee-blue" xmlns="http://www.w3.org/2000/svg" width="48" height="48" viewBox="0 0 48 48">
  <g id="Group_12791" data-name="Group 12791">
    <path id="Path_11349" data-name="Path 11349" d="M24,0A24,24,0,1,1,0,24,24,24,0,0,1,24,0Z" fill="#0F62FE"/>
    <path id="Path_11562" data-name="Path 11562" d="M14.9,29.952A124.393,124.393,0,0,0,30.986,29.1a11.7,11.7,0,0,0,1.342-1.764c-9.478,1.164-15.978.972-18.906.6L29.394,11.662c1.232-1.194-.566-4.916-4.4-5.376a80.91,80.91,0,0,0-18.186.57,18.11,18.11,0,0,0-1.586,1.9A94.242,94.242,0,0,1,23.5,7.966S8.19,23.726,7.45,24.72s.194,2.728,1.22,3.6S10.116,29.7,14.9,29.952Z" transform="translate(5.276 6)" fill="#fff"/>
  </g>
</svg>
