<svg id="icon-wifi-blue" xmlns="http://www.w3.org/2000/svg" width="48" height="48" viewBox="0 0 48 48">
  <g id="Group_12791" data-name="Group 12791">
    <path id="Path_11349" data-name="Path 11349" d="M24,0A24,24,0,1,1,0,24,24,24,0,0,1,24,0Z" fill="#0F62FE"/>
    <g id="icon" transform="translate(0)">
      <path id="Path_11444" data-name="Path 11444" d="M18.729,0A19.744,19.744,0,0,1,22.44.368,18.745,18.745,0,1,1,18.729,0Z" transform="translate(5.98 6.042)" fill="#fff"/>
      <g id="Wi-Fi" transform="translate(0)">
        <path id="Path_10085" data-name="Path 10085" d="M16.337,16.593a.947.947,0,1,0-.947-.947A.947.947,0,0,0,16.337,16.593Z" transform="translate(5.13 4.9)" fill="#0F62FE"/>
        <rect id="Rectangle_737" data-name="Rectangle 737" width="1.64" height="5.147" transform="translate(20.653 22.253)" fill="#0F62FE"/>
        <path id="Path_10086" data-name="Path 10086" d="M29.263,12.55H23.49c-1.173,0-4.413,1.6-4.413,4.093V21a7.827,7.827,0,0,1-2.547,5.333H29.263A5.333,5.333,0,0,0,34.6,21V17.91a5.333,5.333,0,0,0-5.333-5.36Zm-1.827,4.6H23.343v1.573H27.1v1.56h-3.76v2.96H21.7V15.59h5.733Zm2.76,6.093h-1.64V18.07H30.2Zm-.813-5.92a.94.94,0,1,0,0-.013Z" transform="translate(5.51 4.183)" fill="#0F62FE"/>
        <path id="Path_10087" data-name="Path 10087" d="M14.623,19.3,13.1,14.83H11.757L10.223,19.3,9.143,14.83H7.33l2.147,7.64h1.36l1.587-5.08,1.587,5.08h1.36l2.147-7.64H15.7Z" transform="translate(2.443 4.943)" fill="#0F62FE"/>
        <path id="Path_10088" data-name="Path 10088" d="M24,0A24,24,0,1,0,48,24,24,24,0,0,0,24,0ZM40.707,25.2a5.933,5.933,0,0,1-5.933,5.933H12.947A5.933,5.933,0,0,1,7.013,25.2V22.093a5.933,5.933,0,0,1,5.933-5.933H34.773a5.933,5.933,0,0,1,5.933,5.933Zm0-6.493a1.476,1.476,0,1,0,.013-.04Z" fill="#0F62FE"/>
        <path id="Path_10089" data-name="Path 10089" d="M30.87,13.173c0-.16-.133-.173-.24-.173h-.24v.347h.187C30.737,13.347,30.87,13.347,30.87,13.173Z" transform="translate(10.13 4.333)" fill="#0F62FE"/>
        <path id="Path_10090" data-name="Path 10090" d="M30.743,12.7a.813.813,0,1,0,.813.813.813.813,0,0,0-.813-.813Zm.293,1.333-.307-.48h-.187v.48H30.37v-1.12h.44c.267,0,.387.107.387.32a.28.28,0,0,1-.293.307l.32.493Z" transform="translate(9.977 4.233)" fill="#0F62FE"/>
      </g>
    </g>
  </g>
</svg>
