<svg id="icon-rail-blue" xmlns="http://www.w3.org/2000/svg" width="48" height="48" viewBox="0 0 48 48">
  <circle id="Ellipse_18" data-name="Ellipse 18" cx="24" cy="24" r="24" fill="#0F62FE"/>
  <g id="noun_Layers_984081" transform="translate(9.719 13)">
    <path id="Path_10131" data-name="Path 10131" d="M27.153,15,23.369,13.02l-1.981,1.037,3.092,1.618-10.137,5.3a1.219,1.219,0,0,1-.562.138,1.231,1.231,0,0,1-.563-.138l-10.142-5.3L6.17,14.057,4.188,13.021.4,15a.765.765,0,0,0,0,1.349l11.989,6.268a2.985,2.985,0,0,0,2.772,0l11.987-6.268a.766.766,0,0,0,0-1.349Z" transform="translate(0 -1.011)" fill="#fff"/>
    <path id="Path_10132" data-name="Path 10132" d="M.4,7.96l11.989,6.268a2.985,2.985,0,0,0,2.772,0L27.153,7.96a.765.765,0,0,0,0-1.349L15.166.341a2.99,2.99,0,0,0-2.773,0L.4,6.61a.766.766,0,0,0,0,1.35Z" transform="translate(0 0)" fill="#fff"/>
  </g>
</svg>
