<svg id="icon-bluetooth-blue" xmlns="http://www.w3.org/2000/svg" width="48" height="48" viewBox="0 0 48 48">
  <g id="Group_12791" data-name="Group 12791">
    <path id="Path_11349" data-name="Path 11349" d="M24,0A24,24,0,1,1,0,24,24,24,0,0,1,24,0Z" fill="#0F62FE"/>
    <path id="Path_11519" data-name="Path 11519" d="M19.124,22.313,25.136,17.5a.752.752,0,0,0,.061-1.116L18.531,9.719a.751.751,0,0,0-1.281.531V20.439l-6.969-6.97a.751.751,0,0,0-1.062,1.062L16.94,22.25,9.219,29.969a.751.751,0,0,0,1.062,1.062l6.969-6.97V34.25a.749.749,0,0,0,.424.675.751.751,0,0,0,.8-.088L25.136,29.5a.752.752,0,0,0,.061-1.116ZM18.75,12.06l4.792,4.794L18.75,20.688Zm0,20.629V24.061l4.792,4.794Z" transform="translate(6 2.5)" fill="#fff"/>
  </g>
</svg>
