<svg id="icon-platform-blue" xmlns="http://www.w3.org/2000/svg" width="48" height="48" viewBox="0 0 48 48">
  <g id="icon" transform="translate(0.001)">
    <circle id="Ellipse_1" data-name="Ellipse 1" cx="24" cy="24" r="24" transform="translate(-0.001)" fill="#0F62FE"/>
  </g>
  <path id="Path_10133" data-name="Path 10133" d="M18.255,7.373c2.667.107,2.8.267,3.493.56a39.751,39.751,0,0,1-10.64.533A11.986,11.986,0,0,1,7.8,7.587c-.347-.187-1.173-.64-1.093-1.493.053-.827,1.227-1.707,1.68-1.973C11.641,2.227,15.081,1.587,18.735,1a52.918,52.918,0,0,0-6.427,1.173c-4.373,1.12-8.907,3.12-10.56,5.2a2.554,2.554,0,0,0-.56,2.8C2.041,11.8,4.548,12.6,7.321,13a5.158,5.158,0,0,1-2.587-1.28.924.924,0,0,1,.32-1.227,9.768,9.768,0,0,1,2.48-1.52l2.773.64L9.8,9.987a.53.53,0,0,0-.24.667,2.4,2.4,0,0,0,.987.72c3.28,1.333,9.413.16,11.413-1.307.56-.4,1.12-.773,1.173-1.493a1.18,1.18,0,0,0-.507-.88c-1.147-.827-3.093-.907-4.4-.933-2.4-.053-2.987-.32-3.653-.72A32.592,32.592,0,0,1,27,5.853a3.926,3.926,0,0,1,2.507,1.413,1.588,1.588,0,0,1-.533,1.813,14.351,14.351,0,0,1-4.827,2.48,30.262,30.262,0,0,0,7.413-3.067c1.413-.853,3.36-2.507,2.987-4.213-.48-2.08-4.267-2.88-4.267-2.88a3.2,3.2,0,0,1,1.253.8,1.107,1.107,0,0,1,.32.987C31.508,4.44,29.881,4.6,28.788,5l-3.04-.453s.533-.293.8-.453a.718.718,0,0,0,.347-.853,1.872,1.872,0,0,0-1.28-.933,14.33,14.33,0,0,0-10.533,1.28c-.72.427-1.653,1.04-1.733,1.92a1.372,1.372,0,0,0,.773,1.147A8.253,8.253,0,0,0,18.255,7.373Z" transform="translate(6.044 17)" fill="#fff"/>
</svg>
