<?xml version="1.0" encoding="utf-8"?>
<!-- Generator: Adobe Illustrator 26.2.1, SVG Export Plug-In . SVG Version: 6.00 Build 0)  -->
<svg version="1.1" id="icon-connect-blue" xmlns="http://www.w3.org/2000/svg" xmlns:xlink="http://www.w3.org/1999/xlink" x="0px"
	 y="0px" width="48" height="48" viewBox="0 0 48 48" style="enable-background:new 0 0 48 48;" xml:space="preserve">
<style type="text/css">
	.st0{fill:#0F62FE;}
	.st1{fill:#FFFFFF;}
</style>
<circle id="Ellipse_1" class="st0" cx="24" cy="24" r="24"/>
<g>
	<path class="st1" d="M33.4,37.2H14.6c-2.1,0-3.8-1.7-3.8-3.8V14.6c0-2.1,1.7-3.8,3.8-3.8h18.8c2.1,0,3.8,1.7,3.8,3.8v18.8
		C37.2,35.5,35.5,37.2,33.4,37.2z M14.6,11.5c-1.7,0-3.1,1.4-3.1,3.1v18.8c0,1.7,1.4,3.1,3.1,3.1h18.8c1.7,0,3.1-1.4,3.1-3.1V14.6
		c0-1.7-1.4-3.1-3.1-3.1H14.6z"/>
	<path class="st1" d="M33.7,34.6H14.3c-0.5,0-0.9-0.4-0.9-0.9V14.3c0-0.5,0.4-0.9,0.9-0.9h19.4c0.5,0,0.9,0.4,0.9,0.9v19.4
		C34.6,34.2,34.2,34.6,33.7,34.6z M14.3,14.1c-0.1,0-0.2,0.1-0.2,0.2v19.4c0,0.1,0.1,0.2,0.2,0.2h19.4c0.1,0,0.2-0.1,0.2-0.2V14.3
		c0-0.1-0.1-0.2-0.2-0.2H14.3z"/>
	<circle class="st1" cx="15.4" cy="15.6" r="0.4"/>
	<circle class="st1" cx="32.6" cy="15.6" r="0.4"/>
	<circle class="st1" cx="15.4" cy="32.9" r="0.4"/>
	<circle class="st1" cx="32.6" cy="32.9" r="0.4"/>
	<path class="st1" d="M20.8,32.1c-1.2,0-2.2-0.7-2.7-1.7c-1.6,0-2.9-1.3-2.9-2.9c0-0.3,0-0.6,0.1-0.9c-0.4-0.4-0.7-1-0.7-1.6
		c0-0.6,0.3-1.2,0.7-1.7c-0.2-0.3-0.3-0.7-0.3-1c0-0.8,0.4-1.4,1.1-1.7c0-0.1,0-0.2,0-0.2c0-1.8,1.4-3.2,3.2-3.2
		c0.3,0,0.5,0,0.8,0.1c0.3-0.6,1-1,1.7-1c1,0,1.9,0.8,1.9,1.9v11.1C23.7,30.8,22.4,32.1,20.8,32.1z M18.6,29.6l0.1,0.3
		c0.3,0.9,1.1,1.5,2.1,1.5c1.2,0,2.2-1,2.2-2.2V18.1c0-0.6-0.5-1.2-1.2-1.2c-0.5,0-1,0.3-1.1,0.8l-0.1,0.4L20.3,18
		c-0.3-0.1-0.6-0.2-0.9-0.2c-1.4,0-2.5,1.1-2.5,2.5c0,0.1,0,0.3,0,0.4l0.1,0.3l-0.3,0.1c-0.5,0.1-0.9,0.6-0.9,1.1
		c0,0.3,0.1,0.6,0.4,0.8l0.3,0.3l-0.4,0.2c-0.4,0.3-0.7,0.8-0.7,1.3c0,0.5,0.2,0.9,0.6,1.2l0.2,0.2l-0.1,0.2
		c-0.1,0.3-0.2,0.5-0.2,0.8c0,1.2,1,2.2,2.2,2.2c0.1,0,0.2,0,0.2,0L18.6,29.6z"/>
	<path class="st1" d="M21.2,18.7c-0.1,0-0.3-0.1-0.3-0.2c-0.1-0.2-0.4-0.4-0.5-0.5c-0.2-0.1-0.3-0.2-0.2-0.4
		c0.1-0.2,0.2-0.3,0.4-0.2c0.3,0.1,0.8,0.4,1,0.8c0.1,0.2,0,0.4-0.2,0.5C21.3,18.7,21.2,18.7,21.2,18.7z"/>
	<path class="st1" d="M18.1,21.9c-0.1,0-0.2-0.1-0.3-0.2c-0.2-0.4-0.7-0.6-1.1-0.5c-0.2,0-0.4-0.1-0.4-0.3s0.1-0.4,0.3-0.4
		c0.7-0.1,1.5,0.3,1.8,0.9c0.1,0.2,0,0.4-0.1,0.5C18.2,21.9,18.1,21.9,18.1,21.9z"/>
	<path class="st1" d="M19.3,24.1c-0.1,0-0.2,0-0.2-0.1c-0.9-0.8-2.2-0.7-3-0.2c-0.2,0.1-0.4,0-0.5-0.1s0-0.4,0.1-0.5
		c1-0.6,2.6-0.8,3.8,0.3c0.1,0.1,0.2,0.4,0,0.5C19.5,24,19.4,24.1,19.3,24.1z"/>
	<path class="st1" d="M17.7,27.3c-0.9,0-1.7-0.3-2.1-0.5c-0.2-0.1-0.2-0.3-0.1-0.5c0.1-0.2,0.3-0.2,0.5-0.1c0.3,0.2,1.1,0.4,1.8,0.4
		c0.2,0,0.4,0.2,0.4,0.4S17.9,27.3,17.7,27.3z"/>
	<path class="st1" d="M18.4,30.4c-0.2,0-0.3-0.1-0.4-0.3c-0.1-1.1,0.1-2,0.6-2.6c0.5-0.6,1.2-0.9,2.2-1c0.2,0,0.4,0.1,0.4,0.3
		c0,0.2-0.1,0.4-0.3,0.4c-0.8,0.1-1.4,0.3-1.7,0.8c-0.4,0.5-0.5,1.2-0.4,2.1C18.8,30.2,18.6,30.4,18.4,30.4
		C18.4,30.4,18.4,30.4,18.4,30.4z"/>
	<path class="st1" d="M20.1,27.2c-0.2,0-0.3-0.1-0.3-0.3c-0.2-0.8-0.6-1.4-0.8-1.5c-0.2-0.1-0.2-0.3-0.1-0.5
		c0.1-0.2,0.3-0.2,0.5-0.1c0.4,0.3,0.8,1,1.1,1.9C20.5,27,20.4,27.2,20.1,27.2C20.2,27.2,20.1,27.2,20.1,27.2z"/>
	<path class="st1" d="M23.4,26c-0.1,0-0.2-0.1-0.3-0.2c-0.3-0.5-1.2-1.1-1.9-1.3c-0.2-0.1-0.3-0.3-0.2-0.4c0.1-0.2,0.3-0.3,0.4-0.2
		c0.7,0.2,1.8,0.9,2.2,1.6c0.1,0.2,0,0.4-0.1,0.5C23.5,26,23.4,26,23.4,26z"/>
	<path class="st1" d="M20.9,23.1c-0.1,0-0.3-0.1-0.3-0.2c-0.5-1.2-0.4-2.5,0.3-3.3c0.1-0.2,0.3-0.2,0.5,0c0.2,0.1,0.2,0.3,0,0.5
		c-0.5,0.6-0.6,1.7-0.2,2.6c0.1,0.2,0,0.4-0.2,0.5C21,23.1,20.9,23.1,20.9,23.1z"/>
	<path class="st1" d="M19.3,22.4c-0.1,0-0.1,0-0.2,0c-0.2-0.1-0.3-0.3-0.2-0.5c0.3-0.6,1.1-1,1.5-1.1c0.2,0,0.4,0.1,0.4,0.3
		c0,0.2-0.1,0.4-0.3,0.4c-0.4,0.1-0.9,0.4-1.1,0.7C19.6,22.3,19.4,22.4,19.3,22.4z"/>
	<path class="st1" d="M27.2,32.1c-1.6,0-2.9-1.3-2.9-2.9V18.1c0-1,0.8-1.9,1.9-1.9c0.7,0,1.3,0.4,1.7,1c0.3-0.1,0.5-0.1,0.8-0.1
		c1.8,0,3.2,1.4,3.2,3.2c0,0.1,0,0.2,0,0.2c0.7,0.3,1.1,1,1.1,1.7c0,0.4-0.1,0.7-0.3,1c0.5,0.4,0.7,1,0.7,1.7c0,0.6-0.2,1.2-0.7,1.6
		c0.1,0.3,0.1,0.6,0.1,0.9c0,1.6-1.3,3-2.9,2.9C29.4,31.4,28.4,32.1,27.2,32.1z M26.2,17c-0.6,0-1.2,0.5-1.2,1.2v11.1
		c0,1.2,1,2.2,2.2,2.2c0.9,0,1.8-0.6,2.1-1.5l0.1-0.3l0.3,0c0.1,0,0.2,0,0.2,0c1.2,0,2.2-1,2.2-2.2c0-0.3-0.1-0.6-0.2-0.8l-0.1-0.2
		l0.2-0.2c0.4-0.3,0.6-0.7,0.6-1.2c0-0.5-0.3-1-0.7-1.3l-0.4-0.2l0.3-0.3c0.2-0.2,0.4-0.5,0.4-0.8c0-0.5-0.4-1-0.9-1.1L31,21.1
		l0.1-0.3c0-0.1,0-0.3,0-0.4c0-1.4-1.1-2.5-2.5-2.5c-0.3,0-0.6,0.1-0.9,0.2l-0.4,0.1l-0.1-0.4C27.1,17.3,26.7,17,26.2,17z"/>
	<path class="st1" d="M26.8,18.7c-0.1,0-0.1,0-0.2,0c-0.2-0.1-0.2-0.3-0.2-0.5c0.2-0.4,0.7-0.7,1-0.8c0.2-0.1,0.4,0.1,0.4,0.2
		s-0.1,0.4-0.2,0.4c-0.1,0-0.4,0.2-0.5,0.5C27.1,18.6,27,18.7,26.8,18.7z"/>
	<path class="st1" d="M29.9,21.9c-0.1,0-0.1,0-0.2,0c-0.2-0.1-0.2-0.3-0.1-0.5c0.3-0.6,1.1-1,1.8-0.9c0.2,0,0.3,0.2,0.3,0.4
		c0,0.2-0.2,0.3-0.4,0.3c-0.4-0.1-0.9,0.2-1.1,0.5C30.2,21.9,30.1,21.9,29.9,21.9z"/>
	<path class="st1" d="M28.7,24.1c-0.1,0-0.2,0-0.3-0.1c-0.1-0.1-0.1-0.4,0-0.5c1.2-1.1,2.8-0.9,3.8-0.3c0.2,0.1,0.2,0.3,0.1,0.5
		c-0.1,0.2-0.3,0.2-0.5,0.1c-0.8-0.5-2-0.6-3,0.2C28.9,24,28.8,24.1,28.7,24.1z"/>
	<path class="st1" d="M30.3,27.3c-0.2,0-0.4-0.2-0.4-0.4s0.2-0.4,0.4-0.4c0.7,0,1.4-0.2,1.8-0.4c0.2-0.1,0.4,0,0.5,0.1
		c0.1,0.2,0,0.4-0.1,0.5C32,27.1,31.2,27.3,30.3,27.3z"/>
	<path class="st1" d="M29.6,30.4C29.6,30.4,29.6,30.4,29.6,30.4c-0.2,0-0.4-0.2-0.4-0.4c0.1-0.9-0.1-1.7-0.4-2.1
		c-0.4-0.4-0.9-0.7-1.7-0.8c-0.2,0-0.3-0.2-0.3-0.4c0-0.2,0.2-0.3,0.4-0.3c1,0.1,1.7,0.4,2.2,1c0.5,0.6,0.7,1.5,0.6,2.6
		C30,30.2,29.8,30.4,29.6,30.4z"/>
	<path class="st1" d="M27.9,27.2C27.8,27.2,27.8,27.2,27.9,27.2c-0.3-0.1-0.4-0.2-0.3-0.4c0.2-1,0.7-1.7,1.1-1.9
		c0.2-0.1,0.4-0.1,0.5,0.1c0.1,0.2,0.1,0.4-0.1,0.5c-0.2,0.1-0.6,0.7-0.8,1.5C28.2,27.1,28,27.2,27.9,27.2z"/>
	<path class="st1" d="M24.6,26c-0.1,0-0.1,0-0.2,0c-0.2-0.1-0.2-0.3-0.1-0.5c0.4-0.7,1.6-1.4,2.2-1.6c0.2-0.1,0.4,0,0.4,0.2
		c0.1,0.2,0,0.4-0.2,0.4c-0.6,0.2-1.6,0.8-1.9,1.3C24.9,25.9,24.8,26,24.6,26z"/>
	<path class="st1" d="M27.1,23.1c0,0-0.1,0-0.1,0c-0.2-0.1-0.3-0.3-0.2-0.5c0.4-0.9,0.3-2-0.2-2.6c-0.1-0.2-0.1-0.4,0-0.5
		c0.1-0.1,0.4-0.1,0.5,0c0.7,0.9,0.8,2.1,0.3,3.3C27.4,23,27.3,23.1,27.1,23.1z"/>
	<path class="st1" d="M28.7,22.4c-0.1,0-0.3-0.1-0.3-0.2c-0.2-0.3-0.7-0.6-1.1-0.7c-0.2,0-0.3-0.2-0.3-0.4c0-0.2,0.2-0.3,0.4-0.3
		c0.4,0.1,1.2,0.5,1.5,1.1c0.1,0.2,0,0.4-0.2,0.5C28.8,22.4,28.8,22.4,28.7,22.4z"/>
	<path class="st1" d="M15.8,11.5c-0.2,0-0.4-0.2-0.4-0.4V8.7c0-0.2,0.2-0.4,0.4-0.4s0.4,0.2,0.4,0.4v2.4
		C16.2,11.3,16,11.5,15.8,11.5z"/>
	<path class="st1" d="M32.2,11.5c-0.2,0-0.4-0.2-0.4-0.4V8.7c0-0.2,0.2-0.4,0.4-0.4s0.4,0.2,0.4,0.4v2.4
		C32.5,11.3,32.4,11.5,32.2,11.5z"/>
	<path class="st1" d="M18.6,11.5c-0.2,0-0.4-0.2-0.4-0.4V8.7c0-0.2,0.2-0.4,0.4-0.4s0.4,0.2,0.4,0.4v2.4
		C18.9,11.3,18.8,11.5,18.6,11.5z"/>
	<path class="st1" d="M21.3,11.5c-0.2,0-0.4-0.2-0.4-0.4V8.7c0-0.2,0.2-0.4,0.4-0.4s0.4,0.2,0.4,0.4v2.4
		C21.6,11.3,21.5,11.5,21.3,11.5z"/>
	<path class="st1" d="M24,11.5c-0.2,0-0.4-0.2-0.4-0.4V8.7c0-0.2,0.2-0.4,0.4-0.4s0.4,0.2,0.4,0.4v2.4C24.4,11.3,24.2,11.5,24,11.5z
		"/>
	<path class="st1" d="M26.7,11.5c-0.2,0-0.4-0.2-0.4-0.4V8.7c0-0.2,0.2-0.4,0.4-0.4s0.4,0.2,0.4,0.4v2.4
		C27.1,11.3,26.9,11.5,26.7,11.5z"/>
	<path class="st1" d="M29.4,11.5c-0.2,0-0.4-0.2-0.4-0.4V8.7c0-0.2,0.2-0.4,0.4-0.4s0.4,0.2,0.4,0.4v2.4
		C29.8,11.3,29.6,11.5,29.4,11.5z"/>
	<path class="st1" d="M15.8,39.7c-0.2,0-0.4-0.2-0.4-0.4v-2.4c0-0.2,0.2-0.4,0.4-0.4s0.4,0.2,0.4,0.4v2.4
		C16.2,39.5,16,39.7,15.8,39.7z"/>
	<path class="st1" d="M32.2,39.7c-0.2,0-0.4-0.2-0.4-0.4v-2.4c0-0.2,0.2-0.4,0.4-0.4s0.4,0.2,0.4,0.4v2.4
		C32.5,39.5,32.4,39.7,32.2,39.7z"/>
	<path class="st1" d="M18.6,39.7c-0.2,0-0.4-0.2-0.4-0.4v-2.4c0-0.2,0.2-0.4,0.4-0.4s0.4,0.2,0.4,0.4v2.4
		C18.9,39.5,18.8,39.7,18.6,39.7z"/>
	<path class="st1" d="M21.3,39.7c-0.2,0-0.4-0.2-0.4-0.4v-2.4c0-0.2,0.2-0.4,0.4-0.4s0.4,0.2,0.4,0.4v2.4
		C21.6,39.5,21.5,39.7,21.3,39.7z"/>
	<path class="st1" d="M24,39.7c-0.2,0-0.4-0.2-0.4-0.4v-2.4c0-0.2,0.2-0.4,0.4-0.4s0.4,0.2,0.4,0.4v2.4C24.4,39.5,24.2,39.7,24,39.7
		z"/>
	<path class="st1" d="M26.7,39.7c-0.2,0-0.4-0.2-0.4-0.4v-2.4c0-0.2,0.2-0.4,0.4-0.4s0.4,0.2,0.4,0.4v2.4
		C27.1,39.5,26.9,39.7,26.7,39.7z"/>
	<path class="st1" d="M29.4,39.7c-0.2,0-0.4-0.2-0.4-0.4v-2.4c0-0.2,0.2-0.4,0.4-0.4s0.4,0.2,0.4,0.4v2.4
		C29.8,39.5,29.6,39.7,29.4,39.7z"/>
	<path class="st1" d="M39.3,16.2h-2.4c-0.2,0-0.4-0.2-0.4-0.4s0.2-0.4,0.4-0.4h2.4c0.2,0,0.4,0.2,0.4,0.4S39.5,16.2,39.3,16.2z"/>
	<path class="st1" d="M39.3,32.5h-2.4c-0.2,0-0.4-0.2-0.4-0.4c0-0.2,0.2-0.4,0.4-0.4h2.4c0.2,0,0.4,0.2,0.4,0.4
		C39.7,32.4,39.5,32.5,39.3,32.5z"/>
	<path class="st1" d="M39.3,18.9h-2.4c-0.2,0-0.4-0.2-0.4-0.4s0.2-0.4,0.4-0.4h2.4c0.2,0,0.4,0.2,0.4,0.4S39.5,18.9,39.3,18.9z"/>
	<path class="st1" d="M39.3,21.6h-2.4c-0.2,0-0.4-0.2-0.4-0.4s0.2-0.4,0.4-0.4h2.4c0.2,0,0.4,0.2,0.4,0.4S39.5,21.6,39.3,21.6z"/>
	<path class="st1" d="M39.3,24.4h-2.4c-0.2,0-0.4-0.2-0.4-0.4s0.2-0.4,0.4-0.4h2.4c0.2,0,0.4,0.2,0.4,0.4S39.5,24.4,39.3,24.4z"/>
	<path class="st1" d="M39.3,27.1h-2.4c-0.2,0-0.4-0.2-0.4-0.4s0.2-0.4,0.4-0.4h2.4c0.2,0,0.4,0.2,0.4,0.4S39.5,27.1,39.3,27.1z"/>
	<path class="st1" d="M39.3,29.8h-2.4c-0.2,0-0.4-0.2-0.4-0.4s0.2-0.4,0.4-0.4h2.4c0.2,0,0.4,0.2,0.4,0.4S39.5,29.8,39.3,29.8z"/>
	<path class="st1" d="M11.1,16.2H8.7c-0.2,0-0.4-0.2-0.4-0.4s0.2-0.4,0.4-0.4h2.4c0.2,0,0.4,0.2,0.4,0.4S11.3,16.2,11.1,16.2z"/>
	<path class="st1" d="M11.1,32.5H8.7c-0.2,0-0.4-0.2-0.4-0.4c0-0.2,0.2-0.4,0.4-0.4h2.4c0.2,0,0.4,0.2,0.4,0.4
		C11.5,32.4,11.3,32.5,11.1,32.5z"/>
	<path class="st1" d="M11.1,18.9H8.7c-0.2,0-0.4-0.2-0.4-0.4s0.2-0.4,0.4-0.4h2.4c0.2,0,0.4,0.2,0.4,0.4S11.3,18.9,11.1,18.9z"/>
	<path class="st1" d="M11.1,21.6H8.7c-0.2,0-0.4-0.2-0.4-0.4s0.2-0.4,0.4-0.4h2.4c0.2,0,0.4,0.2,0.4,0.4S11.3,21.6,11.1,21.6z"/>
	<path class="st1" d="M11.1,24.4H8.7c-0.2,0-0.4-0.2-0.4-0.4s0.2-0.4,0.4-0.4h2.4c0.2,0,0.4,0.2,0.4,0.4S11.3,24.4,11.1,24.4z"/>
	<path class="st1" d="M11.1,27.1H8.7c-0.2,0-0.4-0.2-0.4-0.4s0.2-0.4,0.4-0.4h2.4c0.2,0,0.4,0.2,0.4,0.4S11.3,27.1,11.1,27.1z"/>
	<path class="st1" d="M11.1,29.8H8.7c-0.2,0-0.4-0.2-0.4-0.4s0.2-0.4,0.4-0.4h2.4c0.2,0,0.4,0.2,0.4,0.4S11.3,29.8,11.1,29.8z"/>
</g>
</svg>
