<svg xmlns="http://www.w3.org/2000/svg" width="48" height="48" viewBox="0 0 48 48">
  <g id="Bluetooth" transform="translate(-0.001)">
    <path id="Path_10083" data-name="Path 10083" d="M18.567,8.58v9.8l-4.12-4.093-1.507,1.52,5.173,5.147-5.173,5.12,1.507,1.493,4.12-4.093v9.8l7.48-7.44L21.1,20.927l4.947-4.907ZM23.06,25.82l-2.387,2.373V23.447Zm-2.387-7.347V13.66l2.387,2.373Z" transform="translate(4.33 2.86)" fill="#0F62FE"/>
    <g id="icon-studio-blue" transform="translate(0.001)">
      <g id="Group_10997" data-name="Group 10997" transform="translate(-0.001)">
        <circle id="Ellipse_19" data-name="Ellipse 19" cx="24" cy="24" r="24" transform="translate(0.001)" fill="#0F62FE"/>
        <g id="Group_13676" data-name="Group 13676" transform="translate(13.001 13)">
          <path id="Path_12095" data-name="Path 12095" d="M21.314,25.6a2.353,2.353,0,0,0-.828-1.878,8.4,8.4,0,0,0-2.9-1.336,16.53,16.53,0,0,1-5.47-2.477,4.693,4.693,0,0,1-1.85-3.923,4.865,4.865,0,0,1,2.122-4.071,8.843,8.843,0,0,1,5.421-1.579,8.145,8.145,0,0,1,5.44,1.774,5.312,5.312,0,0,1,2.031,4.377l-.028.083H21.314a2.954,2.954,0,0,0-.939-2.275,3.732,3.732,0,0,0-2.637-.871,3.894,3.894,0,0,0-2.52.725,2.28,2.28,0,0,0-.89,1.85,1.988,1.988,0,0,0,.953,1.69,13.234,13.234,0,0,0,3.292,1.4,12.755,12.755,0,0,1,5.078,2.463,5.121,5.121,0,0,1,1.725,4.021,4.815,4.815,0,0,1-2.052,4.106,8.967,8.967,0,0,1-5.419,1.5,9.9,9.9,0,0,1-5.776-1.7A5.325,5.325,0,0,1,9.737,24.7l.028-.083h3.951a3.12,3.12,0,0,0,1.106,2.652,5,5,0,0,0,3.083.842,4.062,4.062,0,0,0,2.532-.682A2.195,2.195,0,0,0,21.314,25.6Z" transform="translate(-9.735 -9.184)" fill="#fff"/>
          <path id="Path_12096" data-name="Path 12096" d="M23.992,12.722H19.929V9.675h4.063Zm0,18.661H19.929V16.327h4.063Z" transform="translate(-2.2 -9.675)" fill="#fff"/>
        </g>
      </g>
    </g>
  </g>
</svg>
